<?xml version="1.0" encoding="UTF-8"?>
<svg id="Layer_1" data-name="Layer 1" xmlns="http://www.w3.org/2000/svg" viewBox="0 0 214.6 214.6">
  <defs>
    <style>
      .cls-1 {
        fill: #886583;
        stroke-width: 3px;
      }

      .cls-1, .cls-2 {
        stroke: #231f20;
        stroke-miterlimit: 10;
      }

      .cls-2 {
        fill: #ae82a7;
        stroke-width: 2px;
      }

      .cls-3 {
        fill: #231f20;
        stroke-width: 0px;
      }
    </style>
  </defs>
  <rect class="cls-2" x="1" y="1" width="212.6" height="212.6"/>
  <rect class="cls-1" x="22.26" y="22.26" width="170.08" height="170.08" rx="85.04" ry="85.04"/>
  <g>
    <path class="cls-3" d="m30.76,87.68h26.59v18.33l-.52.05c-.27-4.59-1.14-8.53-2.6-11.82-1.73-3.74-3.93-5.61-6.59-5.61h-1.18v27.59c0,4.38,1.37,6.57,4.11,6.57h3.43v1.01h-19.8v-1.01h3.39c2.75,0,4.12-2.19,4.12-6.57v-27.59h-1.46c-2.71,0-4.9,2.02-6.59,6.05-.83,1.98-1.47,4.34-1.9,7.09-.14.93-.28,2.34-.42,4.24h-.57v-18.33Z"/>
    <path class="cls-3" d="m59.66,87.68h24.12v13.99h-.49c-.44-2.45-.84-4.28-1.19-5.5s-.81-2.37-1.37-3.45c-.68-1.29-1.42-2.22-2.22-2.77-1.33-.88-2.95-1.32-4.85-1.32h-4.46v17.17h1.2c1.79,0,3.2-1.22,4.25-3.67.54-1.26.94-2.76,1.2-4.5.13-.74.25-1.84.36-3.28h.57v23.69h-.57c-.13-1.28-.28-2.48-.46-3.61s-.38-2.05-.6-2.75-.51-1.41-.85-2.12c-.97-1.91-2.36-2.87-4.16-2.87h-.94v16.16h3.73c1.1,0,2.1-.12,2.98-.37s1.67-.64,2.38-1.16,1.36-1.21,1.98-2.06c1.06-1.43,1.88-3.22,2.47-5.35.34-1.22.69-2.88,1.06-4.97h.6v14.87h-24.69l-.03-.96h.62c2.75,0,4.12-2.21,4.12-6.62v-21.02c0-2.24-.34-3.9-1.01-4.97s-1.71-1.6-3.12-1.6h-.62v-.96Z"/>
    <path class="cls-3" d="m86.72,87.68h9.48l8.54,27.64,8.47-27.64h8.94v.96h-.83c-1.4,0-2.43.54-3.11,1.62s-1.01,2.73-1.01,4.95v21.02c0,2.21.34,3.85,1.02,4.94s1.72,1.63,3.1,1.63h.83v1.01h-14.66v-1.01h.97c1.39,0,2.42-.54,3.09-1.62s1.01-2.73,1.01-4.95v-24.57h-.06l-9.74,32.14h-.55l-9.85-32.04h-.06v23.3c0,1.62.19,3,.58,4.12s.96,2,1.72,2.61,1.68.94,2.76,1v1.01h-10.65v-1.01h.23c1.46,0,2.61-.68,3.44-2.04s1.25-3.21,1.25-5.53v-20.02c0-2.24-.34-3.9-1.01-4.97s-1.71-1.6-3.12-1.6h-.8v-.96Z"/>
    <path class="cls-3" d="m137.18,86.96h.6l9.12,31.6c.29.98.62,1.79.98,2.43s.77,1.1,1.23,1.38.99.43,1.61.43h.6v1.01h-13.16v-1.01h1.72c.85,0,1.48-.19,1.87-.56s.59-.94.59-1.72c0-.48-.08-1.07-.24-1.76s-.5-1.94-1.03-3.75c-.03-.1-.08-.28-.15-.52s-.14-.47-.21-.7l-.37-1.32h-9.61l-.73,2.69c-.24.91-.36,1.84-.36,2.77,0,.79.14,1.58.41,2.35s.64,1.36,1.08,1.76c.29.28.55.46.79.56s.57.16,1,.19v1.01h-9.24v-1.01c.67-.12,1.2-.31,1.6-.57s.84-.69,1.32-1.29c1.15-1.41,2.27-4.08,3.36-7.99l7.21-25.99Zm-1.72,8.46l-4.45,16.11h9.01l-4.56-16.11Z"/>
    <path class="cls-3" d="m177.65,86.96h1.27v23.87h4.92v4.09h-4.92v1.97c0,1.88.35,3.34,1.04,4.37s1.66,1.55,2.89,1.55h.76v.96h-14.19v-.96h.7c1.05,0,1.92-.23,2.6-.7s1.18-1.19,1.5-2.16.48-2.25.48-3.81v-1.22h-10.5v-4.09l13.46-23.87Zm-2.95,6.62l-9.74,17.3h9.74v-17.3Z"/>
  </g>
</svg>