<?xml version="1.0" encoding="UTF-8"?>
<svg id="Layer_1" data-name="Layer 1" xmlns="http://www.w3.org/2000/svg" viewBox="0 0 214.6 214.6">
  <defs>
    <style>
      .cls-1 {
        fill: #231f20;
        stroke-width: 0px;
      }

      .cls-2 {
        fill: #5a7b94;
        stroke-width: 3px;
      }

      .cls-2, .cls-3 {
        stroke: #231f20;
        stroke-miterlimit: 10;
      }

      .cls-3 {
        fill: #688ca8;
        stroke-width: 2px;
      }
    </style>
  </defs>
  <rect class="cls-3" x="1" y="1" width="212.6" height="212.6"/>
  <rect class="cls-2" x="22.26" y="22.26" width="170.08" height="170.08" rx="85.04" ry="85.04"/>
  <g>
    <path class="cls-1" d="m29.76,90.9h26.62v18.02l-.52.05c-.27-4.51-1.14-8.38-2.6-11.61-1.73-3.68-3.93-5.51-6.6-5.51h-1.19v27.12c0,4.3,1.37,6.46,4.11,6.46h3.43v.99h-19.83v-.99h3.4c2.75,0,4.13-2.15,4.13-6.46v-27.12h-1.46c-2.71,0-4.91,1.98-6.6,5.95-.83,1.95-1.47,4.27-1.9,6.96-.14.91-.28,2.3-.42,4.17h-.57v-18.02Z"/>
    <path class="cls-1" d="m58.69,90.9h24.15v13.75h-.49c-.44-2.41-.84-4.21-1.19-5.4s-.81-2.33-1.37-3.39c-.68-1.27-1.42-2.18-2.23-2.72-1.33-.86-2.95-1.3-4.86-1.3h-4.47v16.87h1.2c1.79,0,3.21-1.2,4.26-3.61.54-1.24.94-2.71,1.2-4.42.13-.73.25-1.8.36-3.23h.57v23.28h-.57c-.13-1.25-.28-2.44-.46-3.55s-.38-2.01-.6-2.71-.51-1.39-.85-2.08c-.98-1.88-2.36-2.82-4.16-2.82h-.94v15.88h3.74c1.11,0,2.1-.12,2.98-.37s1.68-.63,2.38-1.14,1.37-1.19,1.98-2.02c1.06-1.41,1.89-3.16,2.47-5.26.34-1.2.69-2.83,1.06-4.88h.6v14.61h-24.72l-.03-.94h.62c2.75,0,4.13-2.17,4.13-6.51v-20.66c0-2.2-.34-3.83-1.01-4.88s-1.71-1.58-3.12-1.58h-.62v-.94Z"/>
    <path class="cls-1" d="m85.78,90.9h9.49l8.55,27.17,8.48-27.17h8.96v.94h-.83c-1.4,0-2.44.53-3.11,1.59s-1.02,2.68-1.02,4.87v20.66c0,2.17.34,3.79,1.02,4.85s1.72,1.6,3.1,1.6h.83v.99h-14.68v-.99h.98c1.39,0,2.42-.53,3.1-1.59s1.02-2.68,1.02-4.87v-24.14h-.07l-9.75,31.59h-.55l-9.87-31.49h-.07v22.9c0,1.59.2,2.94.59,4.05s.96,1.97,1.72,2.57,1.68.93,2.76.98v.99h-10.66v-.99h.23c1.46,0,2.61-.67,3.45-2.01s1.25-3.15,1.25-5.44v-19.67c0-2.2-.34-3.83-1.01-4.88s-1.71-1.58-3.12-1.58h-.8v-.94Z"/>
    <path class="cls-1" d="m136.31,90.19h.6l9.13,31.06c.29.97.62,1.76.98,2.39s.77,1.08,1.23,1.36.99.42,1.61.42h.6v.99h-13.18v-.99h1.72c.86,0,1.48-.18,1.88-.55s.59-.93.59-1.69c0-.47-.08-1.05-.24-1.73s-.5-1.91-1.03-3.69c-.03-.1-.08-.27-.15-.51s-.14-.47-.21-.69l-.37-1.3h-9.62l-.73,2.64c-.24.9-.36,1.8-.36,2.72,0,.78.14,1.55.41,2.31s.64,1.34,1.08,1.73c.29.27.56.45.79.55s.57.16,1,.19v.99h-9.25v-.99c.67-.12,1.21-.3,1.6-.56s.84-.68,1.32-1.27c1.15-1.39,2.27-4.01,3.36-7.85l7.22-25.54Zm-1.72,8.31l-4.45,15.83h9.02l-4.57-15.83Z"/>
    <path class="cls-1" d="m174.94,107.34v-.05.1c1.7.39,2.93.85,3.69,1.37.92.56,1.69,1.24,2.32,2.03s1.09,1.71,1.41,2.73.47,2.12.47,3.29c0,2-.44,3.77-1.32,5.31s-2.13,2.74-3.75,3.58-3.45,1.27-5.5,1.27c-1.17,0-2.32-.19-3.45-.56s-2.03-.85-2.71-1.42c-.73-.68-1.31-1.55-1.75-2.62s-.66-2.14-.66-3.23c0-1.25.26-2.3.78-3.13s1.17-1.25,1.95-1.25,1.4.38,1.88,1.13.72,1.7.72,2.83c0,.71-.11,1.33-.32,1.87s-.56,1.05-1.05,1.56c-.47.46-.7.87-.7,1.25,0,.76.47,1.39,1.42,1.88s2.13.74,3.54.74c1.98,0,3.43-.69,4.34-2.08.98-1.59,1.4-3.91,1.28-6.94-.13-3.46-.62-5.81-1.46-7.07-.88-1.32-2.13-1.98-3.75-1.98-.4,0-1.13.07-2.19.2-.29.07-.59.1-.88.1-.62,0-.93-.3-.93-.89s.35-.86,1.04-.86c.13,0,.49.05,1.09.15.77.14,1.4.2,1.9.2.96,0,1.74-.24,2.32-.72s1.01-1.25,1.28-2.3.4-2.49.4-4.32c0-1.02-.05-1.94-.16-2.78s-.26-1.6-.46-2.27-.45-1.23-.74-1.65c-.74-1.15-1.79-1.73-3.17-1.73-.82,0-1.59.14-2.31.43s-1.29.67-1.73,1.13-.66.95-.66,1.46c0,.27.05.5.16.67s.31.4.6.67c.51.39.88.85,1.11,1.39s.34,1.21.34,2.02c0,1.12-.24,2.04-.71,2.76s-1.06,1.08-1.76,1.08c-.75,0-1.37-.4-1.88-1.21s-.76-1.79-.76-2.96c0-1.63.36-3.08,1.08-4.37s1.73-2.28,3.04-2.99,2.79-1.05,4.45-1.05,3.21.37,4.49,1.11,2.27,1.79,2.97,3.15,1.06,2.96,1.06,4.79c0,1.15-.15,2.22-.46,3.19s-.77,1.82-1.37,2.53c-.69.81-1.67,1.46-2.93,1.93-.31.12-.85.29-1.59.51Z"/>
  </g>
</svg>