<?xml version="1.0" encoding="UTF-8"?>
<svg id="Layer_1" data-name="Layer 1" xmlns="http://www.w3.org/2000/svg" viewBox="0 0 214.6 214.6">
  <defs>
    <style>
      .cls-1 {
        fill: #748b29;
        stroke-width: 3px;
      }

      .cls-1, .cls-2 {
        stroke: #231f20;
        stroke-miterlimit: 10;
      }

      .cls-3 {
        fill: #231f20;
        stroke-width: 0px;
      }

      .cls-2 {
        fill: #85a03d;
        stroke-width: 2px;
      }
    </style>
  </defs>
  <rect class="cls-2" x="1" y="1" width="212.6" height="212.6"/>
  <rect class="cls-1" x="22.26" y="22.26" width="170.08" height="170.08" rx="85.04" ry="85.04"/>
  <g>
    <path class="cls-3" d="m30.76,89.6h26.73v18.33l-.52.05c-.27-4.59-1.14-8.53-2.61-11.82-1.74-3.74-3.95-5.61-6.62-5.61h-1.19v27.59c0,4.38,1.38,6.57,4.13,6.57h3.44v1.01h-19.91v-1.01h3.41c2.76,0,4.14-2.19,4.14-6.57v-27.59h-1.47c-2.72,0-4.93,2.02-6.62,6.05-.84,1.98-1.47,4.34-1.91,7.09-.14.93-.28,2.34-.42,4.24h-.57v-18.33Z"/>
    <path class="cls-3" d="m59.81,89.6h24.25v13.99h-.49c-.45-2.45-.85-4.28-1.2-5.5s-.81-2.37-1.38-3.45c-.69-1.29-1.43-2.22-2.24-2.77-1.34-.88-2.96-1.32-4.88-1.32h-4.49v17.17h1.21c1.79,0,3.22-1.22,4.28-3.67.54-1.26.95-2.76,1.21-4.5.13-.74.25-1.84.36-3.28h.57v23.69h-.57c-.13-1.28-.29-2.48-.47-3.61s-.38-2.05-.6-2.75-.51-1.41-.86-2.12c-.98-1.91-2.37-2.87-4.18-2.87h-.95v16.16h3.75c1.11,0,2.11-.12,2.99-.37s1.68-.64,2.39-1.16,1.37-1.21,1.99-2.06c1.07-1.43,1.89-3.22,2.48-5.35.34-1.22.69-2.88,1.06-4.97h.6v14.87h-24.82l-.03-.96h.62c2.76,0,4.14-2.21,4.14-6.62v-21.02c0-2.24-.34-3.9-1.01-4.97s-1.72-1.6-3.13-1.6h-.62v-.96Z"/>
    <path class="cls-3" d="m87.01,89.6h9.53l8.58,27.64,8.52-27.64h8.99v.96h-.83c-1.4,0-2.44.54-3.12,1.62s-1.02,2.73-1.02,4.95v21.02c0,2.21.34,3.85,1.03,4.94s1.72,1.63,3.12,1.63h.83v1.01h-14.73v-1.01h.98c1.39,0,2.43-.54,3.11-1.62s1.02-2.73,1.02-4.95v-24.57h-.07l-9.79,32.14h-.55l-9.9-32.04h-.07v23.3c0,1.62.2,3,.59,4.12s.97,2,1.73,2.61,1.69.94,2.77,1v1.01h-10.7v-1.01h.23c1.47,0,2.62-.68,3.46-2.04s1.26-3.21,1.26-5.53v-20.02c0-2.24-.34-3.9-1.01-4.97s-1.72-1.6-3.13-1.6h-.8v-.96Z"/>
    <path class="cls-3" d="m137.74,88.87h.6l9.17,31.6c.29.98.62,1.79.99,2.43s.78,1.1,1.23,1.38,1,.43,1.62.43h.6v1.01h-13.23v-1.01h1.73c.86,0,1.49-.19,1.88-.56s.6-.94.6-1.72c0-.48-.08-1.07-.24-1.76s-.5-1.94-1.04-3.75c-.03-.1-.08-.28-.15-.52s-.14-.47-.21-.7l-.38-1.32h-9.66l-.73,2.69c-.24.91-.36,1.84-.36,2.77,0,.79.14,1.58.42,2.35s.64,1.36,1.09,1.76c.29.28.56.46.79.56s.57.16,1,.19v1.01h-9.28v-1.01c.67-.12,1.21-.31,1.61-.57s.84-.69,1.33-1.29c1.15-1.41,2.28-4.08,3.38-7.99l7.24-25.99Zm-1.73,8.46l-4.47,16.11h9.06l-4.59-16.11Z"/>
    <path class="cls-3" d="m183.83,111.79l-1.63,13.89h-17.28c.07-1.69.65-3.56,1.75-5.61.98-1.78,2.86-4.25,5.65-7.42,1.53-1.79,2.47-2.92,2.81-3.39.07-.1.14-.22.23-.35s.18-.28.29-.45c.87-1.43,1.5-2.85,1.88-4.27s.57-3.01.57-4.78c0-3.03-.47-5.36-1.41-6.98s-2.28-2.43-4.01-2.43c-1.31,0-2.51.42-3.61,1.27s-1.96,1.99-2.59,3.44-.95,3.03-.95,4.76c0,1.88.27,2.82.8,2.82.22,0,.34-.25.38-.75.04-.41.12-.84.23-1.27.29-1.07.67-1.85,1.12-2.34s1.01-.74,1.69-.74c.55,0,1.05.19,1.49.57s.78.92,1.02,1.62.36,1.47.36,2.31c0,.97-.16,1.84-.47,2.62s-.73,1.4-1.26,1.85-1.12.67-1.79.67c-1.23,0-2.24-.67-3.03-2.02s-1.18-3.06-1.18-5.15c0-1.26.16-2.5.47-3.71s.76-2.29,1.35-3.22c1.59-2.57,4.04-3.85,7.34-3.85,1.37,0,2.64.26,3.8.79s2.16,1.28,3,2.26,1.48,2.14,1.93,3.47.67,2.77.67,4.32c0,2.26-.49,4.28-1.48,6.05-.41.79-.89,1.5-1.44,2.12-1.04,1.09-2.61,2.32-4.7,3.7-2.93,1.95-4.98,3.65-6.15,5.09-.27.31-.79,1.02-1.57,2.12h10.66c.99,0,1.74-.14,2.26-.43s.92-.8,1.22-1.54.55-1.85.77-3.34l.23-1.71h.6Z"/>
  </g>
</svg>