<?xml version="1.0" encoding="UTF-8"?>
<svg id="Layer_1" data-name="Layer 1" xmlns="http://www.w3.org/2000/svg" viewBox="0 0 214.6 214.6">
  <defs>
    <style>
      .cls-1 {
        fill: #607a48;
        stroke-width: 2px;
      }

      .cls-1, .cls-2 {
        stroke: #231f20;
        stroke-miterlimit: 10;
      }

      .cls-2 {
        fill: #465d34;
        stroke-width: 3px;
      }

      .cls-3 {
        fill: #231f20;
        stroke-width: 0px;
      }
    </style>
  </defs>
  <rect class="cls-1" x="1" y="1" width="212.6" height="212.6"/>
  <rect class="cls-2" x="22.26" y="22.26" width="170.08" height="170.08" rx="85.04" ry="85.04"/>
  <g>
    <path class="cls-3" d="m31.77,89.68h26.66v17.96l-.52.05c-.27-4.49-1.14-8.35-2.6-11.57-1.74-3.66-3.94-5.5-6.61-5.5h-1.19v27.02c0,4.29,1.37,6.43,4.12,6.43h3.43v.99h-19.85v-.99h3.4c2.76,0,4.13-2.14,4.13-6.43v-27.02h-1.46c-2.71,0-4.91,1.98-6.61,5.93-.84,1.94-1.47,4.25-1.9,6.94-.14.91-.28,2.3-.42,4.15h-.57v-17.96Z"/>
    <path class="cls-3" d="m60.74,89.68h24.18v13.7h-.49c-.44-2.4-.84-4.19-1.2-5.38s-.81-2.32-1.38-3.38c-.68-1.27-1.43-2.17-2.23-2.71-1.33-.86-2.96-1.29-4.87-1.29h-4.48v16.82h1.2c1.79,0,3.21-1.2,4.26-3.6.54-1.23.94-2.7,1.2-4.41.13-.73.25-1.8.36-3.22h.57v23.2h-.57c-.13-1.25-.28-2.43-.46-3.53s-.38-2.01-.6-2.7-.51-1.38-.85-2.08c-.98-1.87-2.37-2.81-4.17-2.81h-.94v15.83h3.74c1.11,0,2.1-.12,2.99-.37s1.68-.62,2.38-1.14,1.37-1.19,1.99-2.01c1.06-1.4,1.89-3.15,2.47-5.24.34-1.2.69-2.82,1.06-4.86h.6v14.56h-24.75l-.03-.94h.62c2.76,0,4.13-2.16,4.13-6.48v-20.59c0-2.19-.34-3.82-1.01-4.86s-1.71-1.57-3.12-1.57h-.62v-.94Z"/>
    <path class="cls-3" d="m87.87,89.68h9.5l8.56,27.07,8.49-27.07h8.97v.94h-.83c-1.4,0-2.44.53-3.12,1.58s-1.02,2.67-1.02,4.85v20.59c0,2.16.34,3.77,1.03,4.84s1.72,1.6,3.11,1.6h.83v.99h-14.7v-.99h.98c1.39,0,2.42-.53,3.1-1.58s1.02-2.67,1.02-4.85v-24.06h-.07l-9.76,31.48h-.55l-9.88-31.38h-.07v22.82c0,1.59.2,2.93.59,4.04s.97,1.96,1.73,2.56,1.68.92,2.77.98v.99h-10.68v-.99h.23c1.46,0,2.61-.67,3.45-2s1.25-3.14,1.25-5.42v-19.6c0-2.19-.34-3.82-1.01-4.86s-1.71-1.57-3.12-1.57h-.8v-.94Z"/>
    <path class="cls-3" d="m138.46,88.97h.6l9.15,30.95c.29.96.62,1.76.98,2.38s.77,1.08,1.23,1.35.99.42,1.61.42h.6v.99h-13.2v-.99h1.73c.86,0,1.48-.18,1.88-.54s.59-.92.59-1.68c0-.47-.08-1.05-.24-1.72s-.5-1.9-1.03-3.67c-.03-.1-.08-.27-.15-.51s-.14-.46-.21-.68l-.37-1.29h-9.63l-.73,2.63c-.24.89-.36,1.8-.36,2.71,0,.78.14,1.54.41,2.3s.64,1.33,1.08,1.72c.29.27.56.45.79.54s.57.16,1,.19v.99h-9.26v-.99c.67-.12,1.21-.3,1.6-.56s.84-.68,1.33-1.27c1.15-1.38,2.27-3.99,3.37-7.83l7.23-25.45Zm-1.73,8.28l-4.46,15.78h9.03l-4.57-15.78Z"/>
    <path class="cls-3" d="m184.08,88.97l.07.61c-.55,1.27-1.09,2.26-1.61,2.98s-1.21,1.42-2.07,2.11c-.99.78-2.09,1.37-3.31,1.77s-2.53.61-3.91.61-2.89-.19-4.49-.56l-.98,10.26c1.53-1.37,2.77-2.29,3.73-2.76s2.09-.71,3.39-.71c1.17,0,2.25.16,3.24.47s1.88.77,2.68,1.38,1.49,1.38,2.09,2.3c.62.95,1.1,2.03,1.43,3.25s.5,2.47.5,3.74c0,2.67-.62,4.93-1.87,6.79-1.95,2.99-4.85,4.48-8.69,4.48-1.15,0-2.29-.19-3.41-.56s-2.02-.84-2.69-1.42c-.73-.66-1.29-1.46-1.68-2.41s-.59-1.96-.59-3.04c0-1.25.27-2.28.8-3.09s1.19-1.22,1.97-1.22c.52,0,.98.17,1.38.52s.72.82.96,1.43.36,1.28.36,2.03c0,1.49-.5,2.65-1.5,3.5-.42.37-.63.72-.63,1.04,0,.56.45,1.07,1.36,1.53s1.91.7,3.02.7c2.03,0,3.52-.85,4.47-2.55s1.42-4.36,1.42-7.99c0-2.11-.21-3.9-.63-5.37s-1.04-2.59-1.88-3.37-1.81-1.17-2.93-1.17c-.74,0-1.43.13-2.08.38s-1.33.66-2.04,1.22-1.47,1.27-2.27,2.13h-.57l1.74-19.15c.78.41,1.47.68,2.07.84,1.65.46,3.49.68,5.53.68,1,0,1.93-.05,2.8-.14s1.7-.24,2.51-.46,1.58-.48,2.33-.8Z"/>
  </g>
</svg>